# xmcd
#
# Track frame offsets: 
#        150
#        17418
#        36572
#        57297
#        73363
#        88481
#        108664
#        125435
#        146654
#        165668
#
# Disc length: 2488 seconds
#
# Revision: 4
# Processed by: cddbd v1.5.2PL0 Copyright (c) Steve Scherf et al.
# Submitted via: ExactAudioCopyFreeDBPlugin 1.0
#
DISCID=9709b60a
DTITLE=Lisa Ono - ASIA
DYEAR=2010
DGENRE=Bossa Nova
TTITLE0=Ho Ri Jun Zai Lai
TTITLE1=Olu Pipila
TTITLE2=Saichon
TTITLE3=Dahil Sa Iyo
TTITLE4=Rasa Sayang
TTITLE5=Ye Lai Xiang
TTITLE6=Arirang
TTITLE7=Vande Mataram
TTITLE8=Bengawan Solo
TTITLE9=Buuvein Duu
EXTD=YEAR: 2010
EXTT0=
EXTT1=
EXTT2=
EXTT3=
EXTT4=
EXTT5=
EXTT6=
EXTT7=
EXTT8=
EXTT9=
PLAYORDER=
